<svg height="512pt" viewBox="0 0 512 512" width="512pt" xmlns="http://www.w3.org/2000/svg"><path d="m512 256c0 68.378906-26.628906 132.671875-74.980469 181.019531-48.347656 48.351563-112.640625 74.980469-181.019531 74.980469s-132.671875-26.628906-181.019531-74.980469c-48.351563-48.347656-74.980469-112.640625-74.980469-181.019531s26.628906-132.671875 74.980469-181.019531c48.347656-48.351563 112.640625-74.980469 181.019531-74.980469s132.671875 26.628906 181.019531 74.980469c48.351563 48.347656 74.980469 112.640625 74.980469 181.019531zm0 0" fill="#ffe171"/><path d="m512 256c0 68.378906-26.628906 132.671875-74.980469 181.019531-48.347656 48.351563-112.640625 74.980469-181.019531 74.980469v-512c68.378906 0 132.671875 26.628906 181.019531 74.980469 48.351563 48.347656 74.980469 112.640625 74.980469 181.019531zm0 0" fill="#ffd300"/><path d="m363.238281 354.238281c-21.660156 38.910157-62.75 63.082031-107.238281 63.082031s-85.578125-24.171874-107.238281-63.082031l26.207031-14.597656c16.371094 29.410156 47.421875 47.679687 81.03125 47.679687s64.660156-18.269531 81.03125-47.679687zm0 0" fill="#b26d3c"/><path d="m476.671875 142.671875-14.820313 101.726563c-3.671874 25.230468-25.679687 44.273437-51.179687 44.273437h-73.761719c-25.5 0-47.511718-19.042969-51.179687-44.273437l-3.050781-20.898438h-53.359376l-3.050781 20.898438c-3.667969 25.230468-25.679687 44.273437-51.179687 44.273437h-73.761719c-25.5 0-47.507813-19.042969-51.179687-44.273437l-14.820313-101.726563h205.761719l-7.398438 50.828125h44.617188l-7.398438-50.828125zm0 0" fill="#b26d3c"/><g fill="#7a3d06"><path d="m337.03125 339.640625 26.207031 14.597656c-21.660156 38.910157-62.75 63.082031-107.238281 63.082031v-30c33.609375 0 64.660156-18.269531 81.03125-47.679687zm0 0"/><path d="m476.671875 142.671875-14.820313 101.726563c-3.671874 25.230468-25.679687 44.273437-51.179687 44.273437h-73.761719c-25.5 0-47.511718-19.042969-51.179687-44.273437l-3.050781-20.898438h-26.679688v-30h22.308594l-7.398438-50.828125zm0 0"/></g></svg>