<?xml version="1.0" encoding="iso-8859-1"?>
<!-- Generator: Adobe Illustrator 19.0.0, SVG Export Plug-In . SVG Version: 6.00 Build 0)  -->
<svg version="1.1" id="Capa_1" xmlns="http://www.w3.org/2000/svg" xmlns:xlink="http://www.w3.org/1999/xlink" x="0px" y="0px"
	 viewBox="0 0 512 512" style="enable-background:new 0 0 512 512;" xml:space="preserve">
<path style="fill:#66757F;" d="M469.341,512v-14.222c0-47.132-38.201-85.333-85.333-85.333H128.009
	c-47.118,0-85.333,38.201-85.333,85.333V512H469.341z"/>
<path style="fill:#EF9645;" d="M170.675,390.859c23.779,22.385,53.277,35.812,85.333,35.812s61.539-13.44,85.333-35.812v-21.077
	H170.675V390.859z"/>
<path style="fill:#66757F;" d="M380.453,290.639c16.881,2.958,37.247,1.834,34.361,13.042c-6.812,26.367-37.02,16.597-42.354,16.882
	C367.127,320.861,380.453,290.639,380.453,290.639"/>
<path style="fill:#292F33;" d="M384.896,293.612c26.667,3.556,36.139,5.917,16.583,13.625
	c-10.979,4.338-31.901,68.309-47.374,58.567C338.632,356.076,384.896,293.612,384.896,293.612"/>
<path style="fill:#66757F;" d="M131.641,290.639c-16.881,2.958-37.247,1.834-34.361,13.042c6.812,26.367,37.02,16.597,42.354,16.882
	C144.982,320.861,131.641,290.639,131.641,290.639"/>
<g>
	<path style="fill:#292F33;" d="M127.197,293.612c-26.667,3.556-36.139,5.917-16.583,13.625c10.979,4.338,31.9,68.309,47.374,58.567
		C173.461,356.076,127.197,293.612,127.197,293.612"/>
	<path style="fill:#292F33;" d="M114.566,156.892c-27.776,0-32.782,44.998-9.443,51.114c0,0-19.441,47.218,27.776,47.218
		c-7.779-23.893-22.215-62.776-11.108-91.108"/>
	<path style="fill:#292F33;" d="M397.425,156.892c27.776,0,32.782,44.998,9.443,51.114c0,0,19.441,47.218-27.776,47.218
		c7.779-23.893,22.215-62.776,11.108-91.108"/>
</g>
<path style="fill:#F7DECE;" d="M398.23,220.446c0,98.176-63.672,177.777-142.222,177.777s-142.222-79.601-142.222-177.777
	S177.459,42.669,256.008,42.669S398.23,122.271,398.23,220.446"/>
<g>
	<path style="fill:#662113;" d="M199.12,241.779c-7.85,0-14.222-6.372-14.222-14.222v-14.222c0-7.85,6.372-14.222,14.222-14.222
		c7.85,0,14.222,6.372,14.222,14.222v14.222C213.342,235.408,206.97,241.779,199.12,241.779"/>
	<path style="fill:#662113;" d="M312.897,241.779c-7.865,0-14.222-6.372-14.222-14.222v-14.222c0-7.85,6.357-14.222,14.222-14.222
		s14.222,6.372,14.222,14.222v14.222C327.119,235.408,320.762,241.779,312.897,241.779"/>
</g>
<path style="fill:#C1694F;" d="M270.23,291.556c0,3.926-3.185,7.111-7.111,7.111h-14.222c-3.926,0-7.111-3.185-7.111-7.111
	s3.185-7.111,7.111-7.111h14.222C267.044,284.445,270.23,287.632,270.23,291.556"/>
<path style="fill:#292F33;" d="M108.904,210.321c2.105,2.09,12.629,8.406,14.735,14.705c2.105,6.301,6.314,42.012,18.958,52.523
	c13.028,10.837,62.151,6.798,71.552,2.119c21.063-10.496,23.637-39.794,27.363-54.641c2.105-8.406,14.735-8.406,14.735-8.406
	s12.643,0,14.735,8.406c3.726,14.848,6.314,44.145,27.363,54.628c9.415,4.693,58.539,8.732,71.594-2.105
	c12.615-10.51,16.825-46.222,18.93-52.523c2.09-6.314,12.629-12.615,14.72-14.705c2.119-2.105,2.119-10.51,0-12.615
	c-4.21-4.196-53.874-7.936-107.349-2.09c-10.667,1.152-14.72,4.196-39.992,4.196c-25.259,0-29.326-3.043-39.992-4.196
	c-53.461-5.846-103.139-2.105-107.349,2.09C106.813,199.811,106.813,208.217,108.904,210.321"/>
<path style="fill:#66757F;" d="M111.765,119.39c0,0,19.327-126.592,84.366-119.068c49.948,5.775,69.532,11.733,111.402,1.379
	c27.69-6.855,57.813,16.142,75.975,62.278c11.591,29.397,17.408,57.472,17.408,57.472s56.007-5.476,59.235,24.633
	c3.228,30.108-61.923,67.072-225.975,67.072c-91.946,0-186.808-33.536-191.316-61.597C38.35,123.501,111.765,119.39,111.765,119.39"
	/>
<g>
	<path style="fill:#292F33;" d="M115.559,101.689c0,0-3.84,15.701-5.775,26.61c-1.935,10.923,3.215,18.432,38.471,25.941
		c46.748,9.956,151.878,9.842,214.171-5.461c25.016-6.144,41.046-10.225,39.111-22.514c-2.375-15.189-2.788-15.161-7.68-31.388
		c0,0-21.006,7.139-48.739,13.639c-37.831,8.874-141.709,12.97-191.729,2.048C126.737,104.747,115.559,101.689,115.559,101.689"/>
	<path style="fill:#292F33;" d="M113.635,300.126c-5.034,2.077,41.543,19.598,106.382,20.736c67.84,1.194,88.66,5.547,73.173,20.75
		c-16.284,16-12.117,41.158-10.951,48.612c1.152,7.452,29.099,27.25,31.403,36.423c2.29,9.159-17.493,84.779-17.493,84.779
		l-124.131-3.584c-36.494-125.78-41.003-120.903-58.382-193.492C110.207,300.012,113.635,300.126,113.635,300.126"/>
</g>
<path style="fill:#66757F;" d="M99.413,300.71c-5.034,2.062,41.543,19.598,106.382,20.736c67.84,1.194,88.66,5.547,73.173,20.75
	c-16.284,16-9.443,41.159-8.292,48.612c1.152,7.452,26.439,27.25,28.743,36.409c2.29,9.173-17.493,84.779-17.493,84.779
	l-124.131-3.584C121.3,382.644,116.792,387.523,99.413,314.933C95.985,300.596,99.413,300.71,99.413,300.71"/>
<path style="fill:#292F33;" d="M398.963,300.126c5.034,2.077-41.543,19.598-106.382,20.736c-67.84,1.194-88.66,5.547-73.173,20.75
	c16.299,16,42.339,41.13,41.173,48.583c-1.152,7.467-59.321,27.278-61.625,36.452c-2.29,9.159,17.493,84.779,17.493,84.779
	l124.131-3.584c36.494-125.78,41.003-120.903,58.382-193.492C402.39,300.012,398.963,300.126,398.963,300.126"/>
<path style="fill:#66757F;" d="M411.857,300.126c5.034,2.077-41.543,19.598-106.382,20.736c-67.84,1.194-88.66,5.547-73.173,20.75
	c16.299,16,42.339,41.13,41.173,48.583c-1.152,7.467-59.321,27.278-61.625,36.452c-2.29,9.159,17.479,84.779,17.479,84.779
	l123.121,0.128c36.494-125.767,42.026-124.614,59.406-197.205C415.284,300.012,411.857,300.126,411.857,300.126"/>
<g>
</g>
<g>
</g>
<g>
</g>
<g>
</g>
<g>
</g>
<g>
</g>
<g>
</g>
<g>
</g>
<g>
</g>
<g>
</g>
<g>
</g>
<g>
</g>
<g>
</g>
<g>
</g>
<g>
</g>
</svg>
